<svg xmlns:xlink="http://www.w3.org/1999/xlink" xmlns="http://www.w3.org/2000/svg" width="18" height="18" viewBox="0 0 24 24" data-new-api="FireFill24" data-old-api="FireFill24" class="ZDI ZDI--FireFill24 css-15ro776" fill="currentColor"><path d="M14.602 21.118a8.89 8.89 0 003.72-2.232 8.85 8.85 0 002.618-6.31c0-.928-.14-1.836-.418-2.697a8.093 8.093 0 00-1.204-2.356s.025.035-.045-.055-.1-.115-.1-.115c-.955-1.078-1.504-1.984-1.726-2.854-.06-.232-.138-.88-.22-1.824L17.171 2l-.681.02c-.654.018-1.089.049-1.366.096a7.212 7.212 0 00-3.77 1.863 6.728 6.728 0 00-1.993 3.544l-.088.431-.182-.4a5.032 5.032 0 01-.326-.946 71.054 71.054 0 01-.204-.916l-.199-.909-.833.42c-.52.263-.862.462-1.076.624a8.588 8.588 0 00-2.5 2.976 8.211 8.211 0 00-.888 3.723 8.93 8.93 0 002.616 6.35 8.87 8.87 0 003.093 2.027c-.919-.74-1.593-1.799-1.76-3.051-.186-.703.05-2.352.849-2.79 0 1.938 2.202 3.198 4.131 2.62 2.07-.62 3.07-2.182 2.773-5.688 1.245 1.402 1.65 2.562 1.838 3.264.603 2.269-.357 4.606-2.003 5.86z" fill-rule="evenodd" clip-rule="evenodd" fill="#8590A6"></path></svg>