<svg xmlns:xlink="http://www.w3.org/1999/xlink" xmlns="http://www.w3.org/2000/svg" width="16" height="16" viewBox="0 0 16 17" class="css-1yceefw" fill="none"><path fill="#1A1A1A" d="M4.667 8.5A1.333 1.333 0 112 8.5a1.333 1.333 0 012.667 0zm4.666 0a1.333 1.333 0 11-2.666 0 1.333 1.333 0 012.666 0zm3.334 1.333a1.333 1.333 0 100-2.666 1.333 1.333 0 000 2.666z" fill-rule="evenodd" clip-rule="evenodd"></path><mask id="id-1690502596-a" width="12" height="3" x="2" y="7" maskUnits="userSpaceOnUse" fill="none"><path fill="#FFFFFF" d="M4.667 8.5A1.333 1.333 0 112 8.5a1.333 1.333 0 012.667 0zm4.666 0a1.333 1.333 0 11-2.666 0 1.333 1.333 0 012.666 0zm3.334 1.333a1.333 1.333 0 100-2.666 1.333 1.333 0 000 2.666z" fill-rule="evenodd" clip-rule="evenodd"></path></mask><g mask="url(#id-1690502596-a)" fill="none"><path fill="#8590A6" d="M0 .5h16v16H0z"></path></g></svg>